<svg width="189" height="45" viewBox="0 0 189 45" fill="none" xmlns="http://www.w3.org/2000/svg">
<path d="M0 10.2185C0 4.9002 4.31133 0.588867 9.62963 0.588867H34.3704C39.6887 0.588867 44 4.9002 44 10.2185V34.9592C44 40.2775 39.6887 44.5889 34.3704 44.5889H9.62963C4.31133 44.5889 0 40.2775 0 34.9592V10.2185Z" fill="url(#paint0_linear_1_1343)"></path>
<path d="M0 10.2185C0 4.9002 4.31133 0.588867 9.62963 0.588867H34.3704C39.6887 0.588867 44 4.9002 44 10.2185V34.9592C44 40.2775 39.6887 44.5889 34.3704 44.5889H9.62963C4.31133 44.5889 0 40.2775 0 34.9592V10.2185Z" fill="#FAAF57"></path>
<path fill-rule="evenodd" clip-rule="evenodd" d="M22.7759 6.33313C21.6832 6.33313 20.7975 7.18818 20.7975 8.24293C20.7975 9.29769 21.6832 10.1527 22.7759 10.1527C23.8685 10.1527 24.7542 9.29769 24.7542 8.24293C24.7542 7.18818 23.8685 6.33313 22.7759 6.33313ZM22.7759 35.6622C21.6832 35.6622 20.7975 36.5173 20.7975 37.572C20.7975 38.6268 21.6832 39.4818 22.7759 39.4818C23.8685 39.4818 24.7542 38.6268 24.7542 37.572C24.7542 36.5173 23.8685 35.6622 22.7759 35.6622ZM35.9178 22.8393C35.9178 21.7845 36.8036 20.9295 37.8962 20.9295C38.9888 20.9295 39.8745 21.7845 39.8745 22.8393C39.8745 23.894 38.9888 24.7491 37.8962 24.7491C36.8036 24.7491 35.9178 23.894 35.9178 22.8393ZM7.51425 20.9295C6.42163 20.9295 5.53589 21.7845 5.53589 22.8393C5.53589 23.894 6.42163 24.7491 7.51425 24.7491C8.60687 24.7491 9.49261 23.894 9.49261 22.8393C9.49261 21.7845 8.60687 20.9295 7.51425 20.9295Z" fill="#472A02" fill-opacity="0.35"></path>
<path fill-rule="evenodd" clip-rule="evenodd" d="M22.446 5.89478C21.3534 5.89478 20.4677 6.74982 20.4677 7.80458C20.4677 8.85933 21.3534 9.71438 22.446 9.71438C23.5386 9.71438 24.4244 8.85933 24.4244 7.80458C24.4244 6.74982 23.5386 5.89478 22.446 5.89478ZM22.446 35.2239C21.3534 35.2239 20.4677 36.0789 20.4677 37.1337C20.4677 38.1884 21.3534 39.0435 22.446 39.0435C23.5386 39.0435 24.4244 38.1884 24.4244 37.1337C24.4244 36.0789 23.5386 35.2239 22.446 35.2239ZM35.588 22.4009C35.588 21.3462 36.4737 20.4911 37.5663 20.4911C38.659 20.4911 39.5447 21.3462 39.5447 22.4009C39.5447 23.4557 38.659 24.3107 37.5663 24.3107C36.4737 24.3107 35.588 23.4557 35.588 22.4009ZM7.18441 20.4911C6.0918 20.4911 5.20605 21.3462 5.20605 22.4009C5.20605 23.4557 6.0918 24.3107 7.18441 24.3107C8.27703 24.3107 9.16277 23.4557 9.16277 22.4009C9.16277 21.3462 8.27703 20.4911 7.18441 20.4911Z" fill="white"></path>
<path fill-rule="evenodd" clip-rule="evenodd" d="M35.0578 11.1381C34.2852 10.3923 33.0326 10.3923 32.26 11.1381C31.4874 11.8839 31.4874 13.0932 32.26 13.839C33.0326 14.5848 34.2852 14.5848 35.0578 13.839C35.8304 13.0932 35.8304 11.8839 35.0578 11.1381ZM13.5745 31.8769C12.8019 31.1311 11.5493 31.1311 10.7767 31.8769C10.0041 32.6228 10.0041 33.832 10.7767 34.5778C11.5493 35.3236 12.8019 35.3236 13.5745 34.5778C14.3471 33.832 14.3471 32.6228 13.5745 31.8769ZM32.26 31.7805C33.0326 31.0346 34.2852 31.0346 35.0578 31.7805C35.8304 32.5263 35.8304 33.7355 35.0578 34.4813C34.2852 35.2272 33.0326 35.2272 32.26 34.4813C31.4874 33.7355 31.4874 32.5263 32.26 31.7805ZM13.5746 11.0417C12.802 10.2958 11.5493 10.2958 10.7767 11.0417C10.0041 11.7875 10.0041 12.9967 10.7767 13.7425C11.5493 14.4884 12.802 14.4884 13.5746 13.7425C14.3471 12.9967 14.3471 11.7875 13.5746 11.0417Z" fill="#472A02" fill-opacity="0.35"></path>
<path fill-rule="evenodd" clip-rule="evenodd" d="M34.7277 10.7796C33.9551 10.0338 32.7025 10.0338 31.9299 10.7796C31.1573 11.5254 31.1573 12.7346 31.9299 13.4805C32.7025 14.2263 33.9551 14.2263 34.7277 13.4805C35.5003 12.7346 35.5003 11.5254 34.7277 10.7796ZM13.2445 31.5184C12.4719 30.7726 11.2192 30.7726 10.4466 31.5184C9.67404 32.2642 9.67404 33.4735 10.4466 34.2193C11.2192 34.9651 12.4719 34.9651 13.2445 34.2193C14.0171 33.4735 14.0171 32.2642 13.2445 31.5184ZM31.9299 31.4219C32.7025 30.6761 33.9551 30.6761 34.7277 31.4219C35.5003 32.1678 35.5003 33.377 34.7277 34.1228C33.9551 34.8686 32.7025 34.8686 31.9299 34.1228C31.1573 33.377 31.1573 32.1678 31.9299 31.4219ZM13.2445 10.6831C12.4719 9.93732 11.2192 9.93732 10.4467 10.6831C9.67405 11.429 9.67405 12.6382 10.4467 13.384C11.2192 14.1298 12.4719 14.1298 13.2445 13.384C14.0171 12.6382 14.0171 11.429 13.2445 10.6831Z" fill="white"></path>
<path d="M14.3161 23.0009L21.2329 29.5154C21.4125 29.6879 21.682 29.6879 21.8617 29.5154L34.1554 17.7536C34.3351 17.581 34.3351 17.3222 34.1554 17.1496L31.4157 14.5611C31.2361 14.3885 30.9666 14.3885 30.7869 14.5611L21.6371 23.3029C21.3227 23.0009 17.7745 19.7221 17.7745 19.7221C17.5948 19.5495 17.3254 19.5495 17.1457 19.7221L14.3161 22.44C14.1365 22.5695 14.1365 22.8283 14.3161 23.0009Z" fill="#472A02" fill-opacity="0.35"></path>
<path d="M14.0815 22.1642L20.9982 28.6787C21.1779 28.8512 21.4474 28.8512 21.627 28.6787L33.9208 16.9169C34.1005 16.7443 34.1005 16.4855 33.9208 16.3129L31.1811 13.7244C31.0014 13.5518 30.7319 13.5518 30.5523 13.7244L21.4025 22.4662C21.0881 22.1642 17.5399 18.8854 17.5399 18.8854C17.3602 18.7129 17.0907 18.7129 16.9111 18.8854L14.0815 21.6034C13.9019 21.7328 13.9019 21.9917 14.0815 22.1642Z" fill="white"></path>
<path d="M58.068 30.3309C57.804 30.3309 57.5253 30.3089 57.232 30.2649C56.9533 30.2209 56.6453 30.1622 56.308 30.0889L56.528 27.0749C56.7333 27.1335 56.946 27.1629 57.166 27.1629C57.7673 27.1629 58.2367 26.9209 58.574 26.4369C58.9113 25.9382 59.1533 25.2269 59.3 24.3029C59.4467 23.3789 59.542 22.2569 59.586 20.9369L59.806 14.6889H71.642V30.0889H68.122V16.7789L68.936 17.5929H62.138L62.864 16.7349L62.732 20.8049C62.688 22.3155 62.5853 23.6575 62.424 24.8309C62.2627 26.0042 62.0133 27.0015 61.676 27.8229C61.3387 28.6442 60.8767 29.2675 60.29 29.6929C59.7033 30.1182 58.9627 30.3309 58.068 30.3309ZM75.4442 30.0889V18.2529H78.8542V25.2929L84.6182 18.2529H87.7642V30.0889H84.3542V23.0489L78.6122 30.0889H75.4442ZM99.4234 28.5489V21.0689H95.5514L95.4854 22.5869C95.456 23.2175 95.4194 23.8189 95.3754 24.3909C95.3314 24.9629 95.2434 25.4835 95.1114 25.9529C94.994 26.4075 94.818 26.7962 94.5834 27.1189C94.3487 27.4269 94.0334 27.6395 93.6374 27.7569L90.2494 27.2729C90.6747 27.2729 91.0194 27.1482 91.2834 26.8989C91.5474 26.6349 91.7527 26.2755 91.8994 25.8209C92.046 25.3515 92.156 24.8235 92.2294 24.2369C92.3027 23.6355 92.354 23.0049 92.3834 22.3449L92.5374 18.2529H102.855V28.5489H99.4234ZM89.8534 32.6409V27.2729H104.549V32.6409H101.359V30.0889H93.0434V32.6409H89.8534ZM112.715 30.2649C111.366 30.2649 110.178 30.0009 109.151 29.4729C108.139 28.9449 107.354 28.2262 106.797 27.3169C106.24 26.3929 105.961 25.3442 105.961 24.1709C105.961 22.9829 106.232 21.9342 106.775 21.0249C107.332 20.1009 108.088 19.3822 109.041 18.8689C109.994 18.3409 111.072 18.0769 112.275 18.0769C113.434 18.0769 114.475 18.3262 115.399 18.8249C116.338 19.3089 117.078 20.0129 117.621 20.9369C118.164 21.8462 118.435 22.9389 118.435 24.2149C118.435 24.3469 118.428 24.5009 118.413 24.6769C118.398 24.8382 118.384 24.9922 118.369 25.1389H108.755V23.1369H116.565L115.245 23.7309C115.245 23.1149 115.12 22.5795 114.871 22.1249C114.622 21.6702 114.277 21.3182 113.837 21.0689C113.397 20.8049 112.884 20.6729 112.297 20.6729C111.71 20.6729 111.19 20.8049 110.735 21.0689C110.295 21.3182 109.95 21.6775 109.701 22.1469C109.452 22.6015 109.327 23.1442 109.327 23.7749V24.3029C109.327 24.9482 109.466 25.5202 109.745 26.0189C110.038 26.5029 110.442 26.8769 110.955 27.1409C111.483 27.3902 112.099 27.5149 112.803 27.5149C113.434 27.5149 113.984 27.4195 114.453 27.2289C114.937 27.0382 115.377 26.7522 115.773 26.3709L117.599 28.3509C117.056 28.9669 116.374 29.4435 115.553 29.7809C114.732 30.1035 113.786 30.2649 112.715 30.2649ZM128.26 30.2649C127.263 30.2649 126.39 30.0449 125.642 29.6049C124.894 29.1649 124.307 28.4975 123.882 27.6029C123.471 26.6935 123.266 25.5495 123.266 24.1709C123.266 22.7775 123.464 21.6335 123.86 20.7389C124.256 19.8442 124.828 19.1769 125.576 18.7369C126.324 18.2969 127.219 18.0769 128.26 18.0769C129.375 18.0769 130.372 18.3335 131.252 18.8469C132.147 19.3455 132.851 20.0495 133.364 20.9589C133.892 21.8682 134.156 22.9389 134.156 24.1709C134.156 25.4175 133.892 26.4955 133.364 27.4049C132.851 28.3142 132.147 29.0182 131.252 29.5169C130.372 30.0155 129.375 30.2649 128.26 30.2649ZM121.264 34.3569V18.2529H124.542V20.6729L124.476 24.1929L124.696 27.6909V34.3569H121.264ZM127.666 27.4489C128.238 27.4489 128.744 27.3169 129.184 27.0529C129.639 26.7889 129.998 26.4149 130.262 25.9309C130.541 25.4322 130.68 24.8455 130.68 24.1709C130.68 23.4815 130.541 22.8949 130.262 22.4109C129.998 21.9269 129.639 21.5529 129.184 21.2889C128.744 21.0249 128.238 20.8929 127.666 20.8929C127.094 20.8929 126.581 21.0249 126.126 21.2889C125.671 21.5529 125.312 21.9269 125.048 22.4109C124.784 22.8949 124.652 23.4815 124.652 24.1709C124.652 24.8455 124.784 25.4322 125.048 25.9309C125.312 26.4149 125.671 26.7889 126.126 27.0529C126.581 27.3169 127.094 27.4489 127.666 27.4489ZM138.928 30.0889V16.7789L139.742 17.5929H134.022V14.6889H147.376V17.5929H141.656L142.448 16.7789V30.0889H138.928ZM156.052 30.0889V27.7789L155.832 27.2729V23.1369C155.832 22.4035 155.605 21.8315 155.15 21.4209C154.71 21.0102 154.028 20.8049 153.104 20.8049C152.473 20.8049 151.85 20.9075 151.234 21.1129C150.633 21.3035 150.119 21.5675 149.694 21.9049L148.462 19.5069C149.107 19.0522 149.885 18.7002 150.794 18.4509C151.703 18.2015 152.627 18.0769 153.566 18.0769C155.37 18.0769 156.771 18.5022 157.768 19.3529C158.765 20.2035 159.264 21.5309 159.264 23.3349V30.0889H156.052ZM152.444 30.2649C151.52 30.2649 150.728 30.1109 150.068 29.8029C149.408 29.4802 148.902 29.0475 148.55 28.5049C148.198 27.9622 148.022 27.3535 148.022 26.6789C148.022 25.9749 148.191 25.3589 148.528 24.8309C148.88 24.3029 149.43 23.8922 150.178 23.5989C150.926 23.2909 151.901 23.1369 153.104 23.1369H156.25V25.1389H153.478C152.671 25.1389 152.114 25.2709 151.806 25.5349C151.513 25.7989 151.366 26.1289 151.366 26.5249C151.366 26.9649 151.535 27.3169 151.872 27.5809C152.224 27.8302 152.701 27.9549 153.302 27.9549C153.874 27.9549 154.387 27.8229 154.842 27.5589C155.297 27.2802 155.627 26.8769 155.832 26.3489L156.36 27.9329C156.111 28.6955 155.656 29.2749 154.996 29.6709C154.336 30.0669 153.485 30.2649 152.444 30.2649ZM168.097 30.2649C166.821 30.2649 165.685 30.0082 164.687 29.4949C163.69 28.9669 162.905 28.2409 162.333 27.3169C161.776 26.3929 161.497 25.3442 161.497 24.1709C161.497 22.9829 161.776 21.9342 162.333 21.0249C162.905 20.1009 163.69 19.3822 164.687 18.8689C165.685 18.3409 166.821 18.0769 168.097 18.0769C169.344 18.0769 170.429 18.3409 171.353 18.8689C172.277 19.3822 172.959 20.1229 173.399 21.0909L170.737 22.5209C170.429 21.9635 170.041 21.5529 169.571 21.2889C169.117 21.0249 168.618 20.8929 168.075 20.8929C167.489 20.8929 166.961 21.0249 166.491 21.2889C166.022 21.5529 165.648 21.9269 165.369 22.4109C165.105 22.8949 164.973 23.4815 164.973 24.1709C164.973 24.8602 165.105 25.4469 165.369 25.9309C165.648 26.4149 166.022 26.7889 166.491 27.0529C166.961 27.3169 167.489 27.4489 168.075 27.4489C168.618 27.4489 169.117 27.3242 169.571 27.0749C170.041 26.8109 170.429 26.3929 170.737 25.8209L173.399 27.2729C172.959 28.2262 172.277 28.9669 171.353 29.4949C170.429 30.0082 169.344 30.2649 168.097 30.2649ZM184.087 30.0889L180.127 24.4789L182.921 22.8289L188.135 30.0889H184.087ZM175.705 30.0889V18.2529H179.137V30.0889H175.705ZM178.125 25.6009V22.8509H182.261V25.6009H178.125ZM183.251 24.5669L180.039 24.2149L184.197 18.2529H187.849L183.251 24.5669Z" fill="#242424"></path>
<defs>
<linearGradient id="paint0_linear_1_1343" x1="2.37037" y1="5.18146" x2="40.2963" y2="44.5889" gradientUnits="userSpaceOnUse">
<stop stop-color="#DBDBDB"></stop>
<stop offset="1" stop-color="#F2F2F2"></stop>
</linearGradient>
</defs>
</svg>